<svg xmlns="http://www.w3.org/2000/svg" viewBox="0 0 47 38">
  <defs>
    <style>
      .cls-1 {
        fill: #fff;
      }
    </style>
  </defs>
  <title>24sata_za-desktop_pixel-perfect_47×38px</title>
  <g id="pozitiv">
    <path class="cls-1" d="M0,0V38H47V0Zm34.2829,1L19.58455,19.027V24H9c.58453-1.7337,2.163-3.81714,7.62115-6.49963,5.22412-2.55841,6.47229-4.86951,6.47229-8.66644A7.50461,7.50461,0,0,0,17.06648,1Zm.819,8.24695c-.07788,1.36176-.11682,4.53918-.11682,6.23108V19H32.95723c-1.87091,0-3.74255-.08252-5.10681,0,1.01337-1.03156,2.14429-2.90265,3.58716-4.75995l.3891-.495A45.19719,45.19719,0,0,0,35.10188,9.24695ZM1,1h7.2641A21.42874,21.42874,0,0,0,1.06526,4.45929L4.53517,10.361a13.88248,13.88248,0,0,1,8.10919-2.9303c2.18359,0,3.0412.70142,3.0412,1.98108,0,1.1554-.42889,1.60931-3.31427,2.97156C5.62971,15.56378,1.327,20.19861,1,29.70453ZM46,37H1V30H23V24.88757h11.985V30h6.78375V25H46Zm0-18h-4.2312V1H46ZM7.45509,34.499c0,1.12109-1.01758,1.583-2.42969,1.583a5.38762,5.38762,0,0,1-2.48047-.5957l.79-.73627A3.93983,3.93983,0,0,0,5.05861,35c.58008,0,.76465-.17194.76465-.40338,0-.18164-.21-.44232-1-.59662-1.4209-.27246-2.10156-.44635-2.10156-1.42682,0-.9248.89941-1.54785,2.32031-1.54785a4.43413,4.43413,0,0,1,2.3457.56738l-.79.65729A3.09323,3.09323,0,0,0,4.958,32c-.48828,0-.60547.32123-.60547.496,0,.18164.21.35651.9668.504C6.79884,33.29395,7.45509,33.582,7.45509,34.499ZM16.67531,31l-2.13477,5.00482h1.748L16.6089,35h1.76563l.31934,1.00482h1.76563L18.32375,31ZM16.75,34s.66553-1.6709.7417-2c.0752.3291.7583,2,.7583,2Zm21.79053,2.00482h1.748L40.6089,35h1.76563l.31934,1.00482h1.76563L42.32375,31H40.67531ZM41.49171,32c.0752.3291.7583,2,.7583,2h-1.5S41.41554,32.3291,41.49171,32ZM27.38625,31H32.313v1.28607H30.66457v3.71875H29.03371V32.28607H27.38625Z"/>
  </g>
</svg>
