<?xml version="1.0" encoding="utf-8"?>
<!-- Generator: Adobe Illustrator 23.0.1, SVG Export Plug-In . SVG Version: 6.00 Build 0)  -->
<svg version="1.1" id="Layer_1" xmlns="http://www.w3.org/2000/svg" xmlns:xlink="http://www.w3.org/1999/xlink" x="0px" y="0px"
	 viewBox="0 0 205 80" style="enable-background:new 0 0 205 80;" xml:space="preserve">
<style type="text/css">
	.st0{fill:#1B181C;}
	.st1{fill:#EF402A;}
</style>
<g>
	<g>
		<g>
			<path class="st0" d="M77.8,34.3l0,17.4h3.1V34.3H77.8z M75.4,40.1c0-1.9-0.5-3.4-1.5-4.5c-1-1.1-2.4-1.6-4.1-1.6
				c-1,0-1.9,0.2-2.9,0.7c-0.9,0.4-1.6,1-1.9,1.7c-1-1.6-2.7-2.3-5.2-2.3c-1.8,0-3.2,0.8-4.4,2.3l-1-2h-2v17.4h3.1V38.9
				c0.3-0.6,0.8-1.1,1.5-1.6c0.7-0.5,1.3-0.7,2-0.7c1,0,1.9,0.2,2.5,0.7c0.6,0.5,1,1.2,1,2v12.4h3.1V38.8c0.2-0.6,0.7-1.1,1.3-1.6
				c0.6-0.5,1.3-0.7,2.1-0.7c2.3,0,3.5,1.4,3.5,4.1v11h3.1V40.1z M85.9,38.4c0-0.5,0.2-1,0.7-1.3c0.5-0.3,1.1-0.5,1.8-0.5
				c1.2,0,2.4,0.5,3.6,1.5l0.9-2.9c-1.9-0.8-3.5-1.2-4.7-1.2c-1.7,0-3,0.4-4,1.2c-1,0.8-1.5,1.9-1.5,3.3c0,0.6,0.1,1.1,0.3,1.6
				c0.2,0.5,0.4,0.9,0.8,1.4c0.4,0.4,0.8,0.8,1.3,1.1c0.5,0.3,1.4,0.8,2.8,1.5c1.8,0.8,2.7,1.8,2.7,3c0,1.6-0.9,2.4-2.8,2.4
				c-1,0-2.4-0.6-4.1-1.7l-1.1,2.9c1.6,0.9,3.3,1.4,5.1,1.4c1.9,0,3.4-0.4,4.5-1.3c1.1-0.9,1.6-2.1,1.6-3.7c0-1.2-0.3-2.2-0.9-3
				c-0.6-0.8-1.6-1.5-2.9-2.1l-2.2-1C86.5,40.4,85.9,39.5,85.9,38.4 M103.4,38l0.9-2.9c-1.9-0.8-3.5-1.2-4.7-1.2c-1.7,0-3,0.4-4,1.2
				c-1,0.8-1.5,1.9-1.5,3.3c0,0.6,0.1,1.1,0.3,1.6c0.2,0.5,0.4,0.9,0.8,1.4c0.4,0.4,0.8,0.8,1.3,1.1c0.5,0.3,1.4,0.8,2.8,1.5
				c1.8,0.8,2.7,1.8,2.7,3c0,1.6-0.9,2.4-2.8,2.4c-1,0-2.4-0.6-4.1-1.7l-1.1,2.9c1.6,0.9,3.3,1.4,5.1,1.4c1.9,0,3.4-0.4,4.5-1.3
				c1.1-0.9,1.6-2.1,1.6-3.7c0-1.2-0.3-2.2-0.9-3c-0.6-0.8-1.6-1.5-2.9-2.1l-2.2-1c-1.3-0.6-1.9-1.4-1.9-2.5c0-0.5,0.2-1,0.7-1.3
				c0.5-0.3,1.1-0.5,1.8-0.5C101,36.6,102.2,37.1,103.4,38"/>
			<path class="st0" d="M77.2,29.8H81c0,0,0.4,1.1-0.3,2c-0.7,0.8-1.6,0.7-1.6,0.7s-1.2,0-1.8-1.1C76.7,30.4,77.2,29.8,77.2,29.8"/>
		</g>
		<g>
			<path class="st0" d="M108.9,38L108.9,38c-0.3-0.1-0.5-0.1-0.7-0.2c-0.2,0-0.4-0.1-0.6-0.1l-0.1,0l2.4-6.5c-0.5,0-1.3,0-2.1,0
				c-2.2,0-2.8,0-2.9-0.1c0,0,0-0.1,0-0.1c0-0.1,0-0.2,0-0.4c0-0.3,0-0.7,0.4-0.7c0.5,0,1.1,0,1.7,0c1,0,2.1,0,2.9-0.1
				c0.4-0.1,0.7,0,1.1,0c0.2,0,0.4,0,0.7,0c0,0,0.1,0,0.2,0c0.1,0.1,0.2,0.3,0,0.5c-0.7,1.6-1.2,2.8-1.6,4.1
				C109.9,35.5,109.5,36.6,108.9,38L108.9,38z M107.8,37.6c0.1,0,0.3,0.1,0.5,0.1c0.2,0,0.3,0.1,0.5,0.1c0.5-1.3,0.9-2.4,1.3-3.4
				c0.5-1.3,0.9-2.5,1.6-4.1c0.1-0.2,0.1-0.2,0-0.2c0,0-0.1,0-0.1,0c-0.3,0-0.5,0-0.7,0c-0.3,0-0.6,0-1,0c-0.9,0.1-1.9,0.1-3,0.1
				c-0.6,0-1.2,0-1.7,0c-0.1,0-0.2,0.1-0.2,0.5c0,0.1,0,0.2,0,0.3c0.3,0.1,1.7,0,2.7,0c0.9,0,1.8,0,2.3,0l0.2,0L107.8,37.6z"/>
			<path class="st0" d="M108.3,38.5l-1.1-0.4c-0.1,0-0.1-0.1-0.2-0.1c-0.1-0.1,0-0.3,0-0.4c0.7-2.3,1.5-4.6,2.5-6.9
				c-1.2,0-2.4,0.1-3.6,0.1c-0.1,0-0.3,0-0.4-0.1c-0.1-0.1-0.2-0.3-0.2-0.4c-0.1-0.5,0.1-0.8,0.3-0.9c0.1,0,0.2,0,0.3,0
				c0.1,0,0.2,0,0.2,0l0,0l4.7,0c0,0,0.1-0.1,0.2,0c0.1,0,0.2,0.1,0.3,0.2c0.1,0.2,0,0.3,0,0.4c-0.1,0.6-0.3,1.2-0.6,1.8L108.3,38.5
				z M109.8,30.5l-0.1,0.2c-1,2.3-1.8,4.7-2.5,7c0,0.1,0,0.2,0,0.2c0,0,0.1,0,0.1,0.1l0.9,0.3l2.4-6.6c0.2-0.6,0.4-1.2,0.6-1.8
				c0-0.1,0-0.2,0-0.3c0,0,0,0-0.1-0.1c0,0,0,0,0,0l0,0l-4.8,0c-0.1,0-0.2,0-0.3,0c-0.1,0-0.1,0-0.2,0c-0.2,0.1-0.2,0.5-0.2,0.6
				c0,0.1,0,0.2,0.1,0.3c0.1,0,0.1,0,0.2,0c1.3,0,2.5,0,3.8-0.1L109.8,30.5z"/>
		</g>
	</g>
	<g>
		<path class="st1" d="M120.6,34.4c4,0,6.1,2,6.1,2l-1.2,1.8c0,0-1.9-1.6-4.8-1.6c-4,0-6.4,2.9-6.4,6.5c0,3.9,2.7,6.6,6.2,6.6
			c2.9,0,4.8-2.1,4.8-2.1v-2.4h-2.7v-2.1h4.9v8.5h-2.1v-1.1c0-0.4,0-0.7,0-0.7h0c0,0-1.8,2.1-5.2,2.1c-4.5,0-8.3-3.6-8.3-8.7
			C112,38.3,115.7,34.4,120.6,34.4"/>
		<path class="st1" d="M139.6,46.7h-6.4l-1.7,4.9h-2.4l6.1-16.9h2.5l6.1,16.9h-2.5L139.6,46.7z M136.5,37c0,0-0.4,1.5-0.7,2.4
			l-1.9,5.4h5.1l-1.9-5.4C136.9,38.6,136.5,37,136.5,37L136.5,37z"/>
		<path class="st1" d="M146.3,47.9c0,0,1.8,1.8,4.3,1.8c1.6,0,2.9-0.9,2.9-2.5c0-3.7-8.2-2.9-8.2-8.1c0-2.6,2.3-4.7,5.4-4.7
			c3.1,0,4.8,1.7,4.8,1.7l-1.1,2c0,0-1.6-1.5-3.7-1.5c-1.8,0-3.1,1.1-3.1,2.5c0,3.5,8.2,2.6,8.2,8c0,2.6-2,4.8-5.4,4.8
			c-3.6,0-5.6-2.2-5.6-2.2L146.3,47.9z"/>
		<polygon class="st1" points="162.9,36.8 157.2,36.8 157.2,34.7 171.1,34.7 171.1,36.8 165.3,36.8 165.3,51.6 162.9,51.6 		"/>
		<path class="st1" d="M173.5,34.7h5.2c1.8,0,2.5,0.1,3.2,0.4c1.7,0.6,2.8,2.3,2.8,4.6c0,2.2-1.2,4-3,4.6v0c0,0,0.2,0.2,0.5,0.8
			l3.6,6.5H183l-3.6-6.7h-3.6v6.7h-2.4V34.7z M179.3,42.8c1.8,0,3-1.2,3-3.1c0-1.2-0.5-2.1-1.3-2.6c-0.5-0.2-1-0.4-2.3-0.4h-2.7v6
			H179.3z"/>
		<path class="st1" d="M196.4,34.4c4.9,0,8.7,3.8,8.7,8.6c0,5-3.8,8.8-8.7,8.8c-4.9,0-8.7-3.9-8.7-8.8
			C187.7,38.2,191.5,34.4,196.4,34.4 M196.4,49.7c3.4,0,6.2-2.9,6.2-6.7c0-3.7-2.8-6.5-6.2-6.5c-3.4,0-6.2,2.8-6.2,6.5
			C190.1,46.8,192.9,49.7,196.4,49.7"/>
	</g>
	<g>
		<path class="st1" d="M7.7,31.6c0.8,2.3,0.7,4.8,0.5,7.2c-0.2,2.2-0.7,4.5-0.8,6.7c0,2,0.3,4.1,1.3,5.9c1.1,2,3.1,2.9,5.3,3.2
			c1.4,0.2,2.8,0.2,4.2,0.3l4.4,0.2c2.9,0.1,5.8,0.4,8.7,0.4c2.4,0,5-0.2,7-1.7c1.6-1.2,2.7-3,3.3-4.9c1.8-5.8-0.6-11.7,0.2-17.6
			c0.1-0.4-0.6-0.6-0.7-0.2c-0.7,5.2,1.2,10.4,0.3,15.6c-0.3,2-1,4-2.4,5.5c-1.6,1.8-3.8,2.5-6.1,2.6c-2.7,0.1-5.4-0.1-8.1-0.3
			c-2.9-0.1-5.7-0.3-8.6-0.4c-2.3-0.1-4.7-0.4-6.3-2.3c-1.3-1.6-1.7-3.7-1.7-5.6c-0.1-2.4,0.5-4.8,0.8-7.3c0.3-2.5,0.4-5.1-0.5-7.5
			C8.2,31,7.5,31.2,7.7,31.6"/>
		<path class="st1" d="M41.9,38.7c1.4-0.9,3-1.3,4.7-1.1c0.4,0,0.4-0.6,0-0.7c-1.8-0.2-3.5,0.2-5,1.2C41.2,38.3,41.5,38.9,41.9,38.7
			"/>
		<path class="st1" d="M8,31.8c8.2,0.2,16.4,0.4,24.6,0.6c2.3,0.1,4.7,0.1,7,0.2c0.4,0,0.4-0.7,0-0.7c-8.2-0.2-16.4-0.4-24.6-0.6
			c-2.3-0.1-4.7-0.1-7-0.2C7.5,31.1,7.5,31.8,8,31.8"/>
		<path class="st1" d="M40.4,26.3C31.8,26.5,23.2,27,14.6,28c-2.4,0.3-4.8,0.6-7.2,0.9c-0.4,0.1-0.4,0.8,0,0.7
			c8.5-1.1,17.1-1.9,25.8-2.4c2.4-0.1,4.9-0.2,7.3-0.3C40.9,26.9,40.9,26.2,40.4,26.3"/>
		<path class="st1" d="M29.2,26.7c-0.8-2.1-3-3.6-5.3-3.4c-2.2,0.2-4.2,1.9-4.7,4.1c-0.1,0.4,0.6,0.6,0.7,0.2c0.4-1.9,2.1-3.4,4-3.6
			c2-0.2,3.9,1.1,4.6,2.9C28.7,27.3,29.3,27.1,29.2,26.7"/>
		<path class="st1" d="M7.6,40.4c-2.1-0.2-4.2-1-6.1-2c-0.4-0.2-0.8,0.4-0.4,0.6c2,1,4.1,1.8,6.4,2.1C8.1,41.1,8.1,40.4,7.6,40.4"/>
		<path class="st1" d="M9.2,32.8c8.2-0.4,16.4-0.9,24.6-1.3c2.3-0.1,4.7-0.3,7-0.4c0.4,0,0.4-0.7,0-0.7c-8.2,0.5-16.4,0.9-24.6,1.3
			c-2.3,0.1-4.7,0.3-7,0.4C8.8,32.1,8.8,32.8,9.2,32.8"/>
		<path class="st1" d="M7.7,39c-2.4-0.7-5.1-0.6-7.2-2.1c-0.4-0.2-0.7,0.4-0.4,0.6C2.4,39,5.1,39,7.5,39.7C8,39.8,8.1,39.1,7.7,39"
			/>
		<path class="st1" d="M7.1,34c1.1,2.2,1,4.8,0.8,7.2c-0.1,2.3-0.5,4.6-0.3,7c0.2,2.1,0.7,4.2,1.9,5.9c1.4,1.9,3.5,2.7,5.9,2.8
			c1.5,0,3-0.1,4.5-0.2c1.5-0.1,3-0.2,4.6-0.2c3-0.2,5.9-0.2,8.9-0.5c2.4-0.2,4.9-0.8,6.7-2.5c1.6-1.5,2.5-3.5,2.9-5.6
			c1.2-6.1-1.9-11.8-1.7-17.9c0-0.4-0.7-0.4-0.7,0c-0.2,5.3,2.2,10.4,1.9,15.7c-0.1,2.1-0.6,4.3-1.9,6.1c-1.4,2-3.6,2.9-6,3.3
			c-1.3,0.2-2.6,0.3-3.9,0.3c-1.5,0.1-2.9,0.2-4.4,0.2c-3,0.2-5.9,0.3-8.9,0.5c-2.4,0.1-5,0.1-6.8-1.8c-1.4-1.5-2-3.6-2.3-5.6
			c-0.3-2.5,0.1-5,0.2-7.5c0.2-2.5,0.2-5.2-0.9-7.5C7.5,33.2,6.9,33.6,7.1,34"/>
		<path class="st1" d="M42.4,37.4c1.3-1,2.9-1.6,4.6-1.6c0.4,0,0.4-0.7,0-0.7c-1.9,0-3.6,0.6-5.1,1.8C41.5,37.2,42,37.7,42.4,37.4"
			/>
		<path class="st1" d="M6.5,30.6c8.3-2,16.8-3.1,25.4-4.1c2.4-0.3,4.9-0.6,7.3-0.9c0.4-0.1,0.4-0.8,0-0.7
			c-8.5,1.1-17.1,1.9-25.6,3.5c-2.5,0.4-4.9,1-7.3,1.5C5.9,30,6.1,30.7,6.5,30.6"/>
		<path class="st1" d="M17.6,28.5c0.2-2,1.8-3.7,3.8-4.1c2-0.4,4.1,0.7,5,2.5c0.2,0.4,0.8,0,0.6-0.4c-1.1-2.1-3.5-3.3-5.8-2.8
			c-2.3,0.4-4,2.5-4.3,4.8C16.8,28.9,17.5,28.9,17.6,28.5"/>
	</g>
</g>
</svg>
