<?xml version="1.0" encoding="utf-8"?>
<!-- Generator: Adobe Illustrator 21.1.0, SVG Export Plug-In . SVG Version: 6.00 Build 0)  -->
<svg version="1.1" id="publitzer_media_platform" xmlns="http://www.w3.org/2000/svg" xmlns:xlink="http://www.w3.org/1999/xlink"
	 x="0px" y="0px" viewBox="0 0 163 60" style="enable-background:new 0 0 163 60;" xml:space="preserve">
<style type="text/css">
	.st0{clip-path:url(#SVGID_2_);}
	.st1{fill:#FFFFFF;}
	.st2{clip-path:url(#SVGID_4_);}
	.st3{clip-path:url(#SVGID_6_);}
</style>
<g id="logotype">
	<g>
		<defs>
			<rect id="SVGID_1_" width="163" height="60"/>
		</defs>
		<clipPath id="SVGID_2_">
			<use xlink:href="#SVGID_1_"  style="overflow:visible;"/>
		</clipPath>
		<g id="descriptor" class="st0">
			<path class="st1" d="M158.70898,29h0.63477l1.21387,4.15997L161.73438,29h0.62891l0.34863,5h-0.46094l-0.28027-4.08443
				L160.80078,34h-0.47363l-1.20801-4.08443L158.87012,34h-0.45996L158.70898,29z"/>
			<path class="st1" d="M151.09082,29h1.94336c0.59082,0,1.05176,0.36912,1.05176,1.50273
				c0,1.29755-0.61621,1.40684-0.79102,1.43469L154.25391,34h-0.49805l-0.95898-2.04222l-1.24512-0.09536V34h-0.46094V29z
				 M153.03418,31.41134c0.28613,0,0.58496,0,0.58496-0.90861c0-0.89467-0.31152-0.99003-0.58496-0.99003h-1.48242v1.89864
				H153.03418z"/>
			<path class="st1" d="M145.05078,28.96679c1.07715,0,1.75586,0.22501,1.75586,2.56777c0,2.20615-0.63574,2.49223-1.75586,2.49223
				c-1.12109,0-1.76855-0.21858-1.76855-2.49223C143.28223,29.19179,144.00488,28.96679,145.05078,28.96679z M145.05078,33.52213
				c0.9707,0,1.29492-0.28715,1.29492-1.98757c0-2.04222-0.44824-2.06365-1.29492-2.06365
				c-0.82812,0-1.30762,0.02143-1.30762,2.06365C143.74316,33.28962,144.06738,33.52213,145.05078,33.52213z"/>
			<path class="st1" d="M136.38867,29.88771c0-0.66913,0.36719-0.90807,0.78418-0.88771l1.96777,0.10929v0.39591h-1.96777
				c-0.32324,0-0.32324,0.19822-0.32324,0.38251v1.36612l2.04199,0.06857v0.40287l-2.04199,0.06857V34h-0.46094V29.88771z"/>
			<path class="st1" d="M129.00195,29h3.16211v0.5052h-1.36914V34h-0.46094v-4.4948h-1.33203V29z"/>
			<path class="st1" d="M123.4248,29h0.46094l1.59961,5h-0.54785l-0.39258-1.39398h-1.81738L122.31641,34H121.75L123.4248,29z
				 M124.38379,32.10136l-0.73535-2.32937l-0.75293,2.32937H124.38379z"/>
			<path class="st1" d="M114.84473,29h0.46094v4.13961c0,0.36216,0.20508,0.35466,0.38574,0.35466h1.90527V34h-1.90527
				c-0.41113,0-0.84668-0.08893-0.84668-0.86039V29z"/>
			<path class="st1" d="M107.5752,29h1.87402c0.49219,0,1.08984,0.22608,1.08984,1.44809c0,1.42719-0.62891,1.51612-1.08984,1.51612
				c-0.24902,0-1.38184-0.11572-1.41309-0.13608V34h-0.46094C107.5752,34,107.5752,29,107.5752,29z M109.44922,31.45955
				c0.32422,0,0.62305-0.10286,0.62305-1.01147c-0.0127-0.89467-0.40527-0.93539-0.62305-0.93539h-1.41309v1.94686
				C108.03613,31.45955,109.44922,31.45955,109.44922,31.45955z"/>
			<path class="st1" d="M96.41113,29h0.79688l1.52539,5h-0.79102l-0.34863-1.20861h-1.6123L95.62695,34h-0.80371L96.41113,29z
				 M97.40723,32.06707l-0.59766-1.98757l-0.62305,1.98757H97.40723z"/>
			<path class="st1" d="M89.9873,29h0.72266v5H89.9873V29z"/>
			<path class="st1" d="M82.32324,29h1.84863c1.33887,0,1.59375,1.35916,1.59375,2.52063c0,1.34576-0.4541,2.47937-1.59375,2.47937
				h-1.84863V29z M84.12793,33.26926c0.6543,0,0.91504-0.73824,0.91504-1.75613c0-1.37898-0.34863-1.78935-0.91504-1.78935h-1.08301
				v3.54548H84.12793z"/>
			<path class="st1" d="M75.24854,29.98307c0-0.79128,0.49219-0.99593,0.91553-0.98307c0,0,1.73682,0.06857,1.99219,0.10929v0.64877
				h-1.86182c-0.32324,0-0.32324,0.19822-0.32324,0.38251v0.99111l1.91113,0.0675v0.64931l-1.91113,0.06857v0.99004
				c0.00586,0.36216,0.20508,0.35466,0.38574,0.35466h1.79932v0.64288c-0.22412,0.03429-1.93018,0.11572-1.93018,0.11572
				c-0.41064,0.02036-0.97754-0.08143-0.97754-0.94932C75.24854,33.07103,75.24854,29.98307,75.24854,29.98307z"/>
			<path class="st1" d="M66.8042,29h1.00195l0.92188,3.68853L69.63672,29h0.99609l0.39844,5h-0.70947l-0.29297-3.60656L69.13232,34
				H68.3418l-0.92139-3.60656L67.15869,34h-0.71582L66.8042,29z"/>
		</g>
	</g>
	<g>
		<defs>
			<rect id="SVGID_3_" width="163" height="60"/>
		</defs>
		<clipPath id="SVGID_4_">
			<use xlink:href="#SVGID_3_"  style="overflow:visible;"/>
		</clipPath>
		<g id="publitzer" class="st2">
			<path class="st1" d="M160.1033,23.83862l-2.93382-3.96403c-0.29762-0.0066-0.70947-0.01981-1.24028-0.04632v4.01035h-2.02917
				v-9.6c0.11082,0,0.53419-0.0166,1.27008-0.04801c0.73758-0.03311,1.328-0.04962,1.7795-0.04962
				c2.79646,0,4.1922,0.94266,4.1922,2.82959c0,0.56891-0.19177,1.08491-0.57881,1.55289
				c-0.38365,0.46799-0.87154,0.79711-1.45528,0.99058l3.25127,4.32456C162.35898,23.83861,160.1033,23.83861,160.1033,23.83862z
				 M155.9292,15.72039v2.66744c0.35884,0.02481,0.63664,0.0381,0.82521,0.0381c0.81862,0,1.41234-0.10093,1.791-0.30101
				c0.37875-0.20177,0.56891-0.59203,0.56891-1.17415c0-0.47137-0.20338-0.80041-0.60693-0.98897
				c-0.40685-0.18687-1.0452-0.28111-1.91833-0.28111C156.38068,15.68068,156.15909,15.69389,155.9292,15.72039z"/>
			<path class="st1" d="M144.65717,15.7518v2.24746h3.6366v1.44866h-3.6366v2.8759h4.98773v1.51479h-6.94247v-9.6h7.0235v1.51318
				h-5.06876V15.7518z"/>
			<path class="st1" d="M131.11447,23.83862V23.288l4.59087-7.53619h-4.51643v-1.51318h7.17404v0.55063l-4.60576,7.53458h4.76944
				v1.51479h-7.41216V23.83862z"/>
			<path class="st1" d="M124.25964,15.7518v8.08682h-1.95634V15.7518h-3.50106v-1.51318h9.1139v1.51318H124.25964z"/>
			<path class="st1" d="M113.09016,23.83862v-9.6h1.95145v9.6H113.09016z"/>
			<path class="st1" d="M102.10424,23.83862v-9.6h1.95145v8.08521h4.9729v1.51479H102.10424z"/>
			<path class="st1" d="M93.86357,23.83862h-3.36378v-9.5934c1.48177-0.06122,2.51868-0.09102,3.11569-0.09102
				c1.14274,0,2.03417,0.21168,2.67743,0.64004c0.64505,0.42506,0.96747,1.0336,0.96747,1.8241
				c0,0.75909-0.46307,1.35942-1.38421,1.80099c1.366,0.41506,2.05067,1.27009,2.05067,2.56828
				c0,0.87484-0.37704,1.56771-1.13445,2.0804C96.03491,23.58071,95.05923,23.83862,93.86357,23.83862z M92.45293,15.60786v2.30038
				c0.29932,0.0182,0.61184,0.0265,0.94266,0.0265c1.27339,0,1.91004-0.41845,1.91004-1.25188
				c0-0.73758-0.58043-1.10802-1.73316-1.10802C93.26656,15.57484,92.8928,15.58635,92.45293,15.60786z M92.45293,19.23786v3.17192
				c0.39525,0.0315,0.71277,0.04471,0.96247,0.04471c0.86823,0,1.50158-0.12904,1.89685-0.38535
				c0.39193-0.258,0.58871-0.68627,0.58871-1.28499c0-0.54572-0.18188-0.94266-0.55061-1.19236
				c-0.36555-0.24809-1.0022-0.37374-1.91514-0.37374C93.24503,19.21804,92.9193,19.22634,92.45293,19.23786z"/>
			<path class="st1" d="M77.62694,14.23862h1.95146v6.50581c0,0.516,0.18025,0.93606,0.54079,1.25857
				c0.36053,0.32243,0.85664,0.4845,1.48508,0.4845c0.70777,0,1.25689-0.15876,1.65044-0.47459
				c0.39355-0.31591,0.59042-0.75079,0.59042-1.29989v-6.4744h1.95306v6.60505c0,0.98728-0.38035,1.75966-1.13942,2.31859
				c-0.75741,0.55901-1.77119,0.83843-3.03798,0.83843c-1.27839,0-2.25906-0.27282-2.95693-0.81853
				c-0.69288-0.5458-1.0369-1.328-1.0369-2.34509C77.62695,20.83707,77.62695,14.23862,77.62694,14.23862z"/>
			<path class="st1" d="M68.10297,20.30625v3.53237h-1.95314v-9.5934c1.3015-0.04801,2.06229-0.07113,2.28218-0.07113
				c1.73976,0,3.00985,0.23149,3.81356,0.69787c0.80379,0.46468,1.20396,1.19066,1.20396,2.17803
				c0,2.20115-1.48508,3.30257-4.46021,3.30257C68.76774,20.35257,68.47342,20.33597,68.10297,20.30625z M68.10297,15.72039v3.07268
				c0.32904,0.02972,0.59034,0.04462,0.78051,0.04462c0.89304,0,1.54138-0.12904,1.95475-0.38865
				c0.41016-0.2613,0.61193-0.68297,0.61193-1.26839c0-0.99558-0.91616-1.49337-2.75355-1.49337
				C68.48993,15.68728,68.29315,15.69719,68.10297,15.72039z"/>
		</g>
	</g>
	<g>
		<defs>
			<rect id="SVGID_5_" width="163" height="60"/>
		</defs>
		<clipPath id="SVGID_6_">
			<use xlink:href="#SVGID_5_"  style="overflow:visible;"/>
		</clipPath>
		<g id="sign_1_" class="st3">
			<polygon class="st1" points="24,11 24,23 12,23 			"/>
			<rect x="25" y="11" class="st1" width="12" height="12"/>
			<polygon class="st1" points="50,23 38,23 38,11 			"/>
			<rect x="12.00025" y="24" class="st1" width="11.99975" height="12"/>
			<rect x="25.0005" y="24" class="st1" width="11.9995" height="12"/>
			<polygon class="st1" points="38,36 38,24 50,24 			"/>
			<polygon class="st1" points="12,49 12,37 24,37 			"/>
		</g>
	</g>
</g>
</svg>
